<svg width="14" height="14" viewBox="0 0 14 14" fill="none" xmlns="http://www.w3.org/2000/svg">
<g opacity="0.8">
<path fill-rule="evenodd" clip-rule="evenodd" d="M0 0.488371C0 0.218651 0.223348 0 0.498861 0H1.65622C2.44746 0 3.10587 0.520996 3.31439 1.21767H11.6268C13.0256 1.21767 14.0942 2.33586 13.9934 3.70125L13.6342 8.58482L13.6341 8.5872C13.5411 9.77034 12.4886 10.7376 11.2676 10.7376H4.18378C2.8025 10.7376 1.71305 9.58304 1.83093 8.2351C1.83091 8.23531 1.83095 8.23488 1.83093 8.2351L2.38295 1.75013C2.4184 1.33756 2.08187 0.976741 1.65622 0.976741H0.498861C0.223348 0.976741 0 0.75809 0 0.488371ZM3.34632 2.19441L2.82516 8.3168L2.82505 8.31804C2.75709 9.09261 3.38358 9.76089 4.18378 9.76089H11.2676C11.9619 9.76089 12.5852 9.19208 12.6392 8.51338C12.6392 8.51302 12.6393 8.51265 12.6393 8.51229L12.9983 3.63097C13.0571 2.8345 12.4496 2.19441 11.6268 2.19441H3.34632Z" fill="black"/>
<path fill-rule="evenodd" clip-rule="evenodd" d="M9.97723 12.3727C9.79356 12.3727 9.64466 12.5185 9.64466 12.6983C9.64466 12.8781 9.79356 13.0239 9.97723 13.0239C10.1609 13.0239 10.3098 12.8781 10.3098 12.6983C10.3098 12.5185 10.1609 12.3727 9.97723 12.3727ZM8.64693 12.6983C8.64693 11.9791 9.24253 11.396 9.97723 11.396C10.7119 11.396 11.3075 11.9791 11.3075 12.6983C11.3075 13.4176 10.7119 14.0006 9.97723 14.0006C9.24253 14.0006 8.64693 13.4176 8.64693 12.6983Z" fill="black"/>
<path fill-rule="evenodd" clip-rule="evenodd" d="M4.65677 12.3727C4.47309 12.3727 4.32419 12.5185 4.32419 12.6983C4.32419 12.8781 4.47309 13.0239 4.65677 13.0239C4.84044 13.0239 4.98934 12.8781 4.98934 12.6983C4.98934 12.5185 4.84044 12.3727 4.65677 12.3727ZM3.32647 12.6983C3.32647 11.9791 3.92206 11.396 4.65677 11.396C5.39147 11.396 5.98706 11.9791 5.98706 12.6983C5.98706 13.4176 5.39147 14.0006 4.65677 14.0006C3.92206 14.0006 3.32647 13.4176 3.32647 12.6983Z" fill="black"/>
<path fill-rule="evenodd" clip-rule="evenodd" d="M4.6558 4.39432C4.6558 4.1246 4.87915 3.90594 5.15466 3.90594H13.1364C13.412 3.90594 13.6353 4.1246 13.6353 4.39432C13.6353 4.66404 13.412 4.88269 13.1364 4.88269H5.15466C4.87915 4.88269 4.6558 4.66404 4.6558 4.39432Z" fill="black"/>
</g>
</svg>
